#!OML:ASF I:\Random Stuff\random\construction\7_22_03\Session 2\subj1.ASF
:FULLY-SPECIFIED
:DEGREES
338
root -4.31667 17.822 0.891449 -134.608 85.2296 -139.084
lowerback 0.082216 1.58553 1.83974
upperback -4.10007 2.3078 1.66606
thorax -4.26833 1.15226 0.598466
lowerneck -22.1447 -2.16727 0.919266
upperneck 16.3284 -3.40302 0.73459
head 8.73258 -1.44749 -0.363034
rclavicle -2.85753e-016 -6.95746e-015
rhumerus 43.7158 0.379868 -69.2588
rradius 94.1237
rwrist -28.0122
rhand -28.4944 6.42211
rfingers 7.12502
rthumb -1.86337 -23.5495
lclavicle -2.85753e-016 -6.95746e-015
lhumerus -39.1328 -12.8294 94.7716
lradius 32.1976
lwrist 29.1449
lhand -19.935 57.1728
lfingers 7.12502
lthumb 6.40253 447.056
rfemur 1.6287 2.78762 20.6924
rtibia 1.59028e-015
rfoot -3.11687 -20.4413
rtoes -0.252129
lfemur -10.0019 -21.9746 -11.2313
ltibia 16.414
lfoot -9.98185 19.6645
ltoes -32.419
339
root -4.32 17.8206 0.891909 -134.256 85.2281 -138.68
lowerback 0.0622056 1.60736 1.81212
upperback -4.05845 2.33373 1.67498
thorax -4.21495 1.16637 0.623406
lowerneck -22.156 -2.20153 0.79959
upperneck 16.3451 -3.42251 0.782645
head 8.74327 -1.4587 -0.330313
rclavicle -5.28022e-015 8.74653e-015
rhumerus 43.4861 0.452856 -69.258
rradius 94.2208
rwrist -27.841
rhand -28.547 6.24135
rfingers 7.12502
rthumb -1.91423 -23.7298
lclavicle -5.28022e-015 8.74653e-015
lhumerus -38.9552 -12.6544 94.701
lradius 32.0954
lwrist 29.1171
lhand -19.9075 57.5466
lfingers 7.12502
lthumb 6.42915 447.429
rfemur 1.65733 2.80961 20.7254
rtibia 9.54166e-015
rfoot -3.14633 -20.45
rtoes -0.00129121
lfemur -9.93691 -22.0983 -11.2179
ltibia 16.3987
lfoot -10.0099 19.8058
ltoes -32.3171
340
root -4.3234 17.8202 0.89062 -134.01 85.2383 -138.409
lowerback 0.0242257 1.62865 1.78915
upperback -4.02527 2.35884 1.67811
thorax -4.15979 1.1799 0.640274
lowerneck -22.2121 -2.24922 0.646249
upperneck 16.4063 -3.46949 0.918928
head 8.77955 -1.47383 -0.266704
rclavicle 4.10863e-014 3.12092e-014
rhumerus 43.3237 0.532122 -69.2957
rradius 94.2455
rwrist -27.7192
rhand -28.4408 6.15173
rfingers 7.12502
rthumb -1.81168 -23.8203
lclavicle 4.10863e-014 3.12092e-014
lhumerus -38.8747 -12.5495 94.6769
lradius 32.0936
lwrist 29.1837
lhand -19.9375 57.7877
lfingers 7.12502
lthumb 6.40015 447.671
rfemur 1.65693 2.832 20.7338
rtibia -2.38542e-015
rfoot -3.1186 -20.462
rtoes -0.108446
lfemur -9.91053 -22.3465 -11.211
ltibia 16.4157
lfoot -10.0941 20.0713
ltoes -31.9657
341
root -4.32725 17.8197 0.889592 -133.922 85.2535 -138.322
lowerback -0.0222255 1.63747 1.74196
upperback -4.01672 2.36801 1.68338
thorax -4.12658 1.18652 0.673312
lowerneck -22.236 -2.25028 0.690784
upperneck 16.5127 -3.46799 0.828093
head 8.81752 -1.47898 -0.305869
rclavicle 6.70898e-015 -2.127e-014
rhumerus 43.1707 0.669411 -69.3497
rradius 94.2013
rwrist -27.6573
rhand -28.2508 6.29222
rfingers 7.12502
rthumb -1.62817 -23.6813
lclavicle 6.70898e-015 -2.127e-014
lhumerus -38.877 -12.4816 94.6754
lradius 32.1132
lwrist 29.3837
lhand -20.0531 57.682
lfingers 7.12502
lthumb 6.28854 447.569
rfemur 1.63397 2.84719 20.7215
rtibia -7.95139e-016
rfoot -3.04477 -20.4541
rtoes -0.414366
lfemur -9.92842 -22.6816 -11.2036
ltibia 16.4503
lfoot -10.1826 20.4011
ltoes -31.6013
342
root -4.3332 17.8175 0.890037 -134.04 85.2651 -138.432
lowerback -0.0419769 1.65724 1.67478
upperback -4.00872 2.39211 1.68844
thorax -4.1099 1.20105 0.715924
lowerneck -22.1884 -2.1476 1.10884
upperneck 16.5443 -3.35967 0.352869
head 8.8031 -1.45543 -0.520484
rclavicle -2.89604e-014 -1.45113e-014
rhumerus 43.0156 0.740599 -69.357
rradius 94.0919
rwrist -27.4644
rhand -28.2387 6.48193
rfingers 7.12502
rthumb -1.61646 -23.4917
lclavicle -2.89604e-014 -1.45113e-014
lhumerus -38.8754 -12.5503 94.7411
lradius 32.0947
lwrist 29.7621
lhand -20.1348 57.4163
lfingers 7.12502
lthumb 6.20969 447.305
rfemur 1.60589 2.84787 20.709
rtibia 4.77083e-015
rfoot -2.89466 -20.4397
rtoes -0.965861
lfemur -9.95816 -22.8058 -11.2069
ltibia 16.4843
lfoot -10.2376 20.4973
ltoes -31.483
343
root -4.34056 17.8153 0.88984 -134.118 85.2857 -138.485
lowerback -0.0113534 1.67645 1.63734
upperback -4.00741 2.41686 1.67605
thorax -4.12685 1.21411 0.722214
lowerneck -22.0546 -1.97122 1.71704
upperneck 16.4563 -3.18008 -0.251238
head 8.7289 -1.40262 -0.797712
rclavicle 1.97915e-014 1.72943e-014
rhumerus 42.854 0.797407 -69.3952
rradius 94.011
rwrist -27.0903
rhand -28.4139 6.5038
rfingers 7.12502
rthumb -1.78569 -23.4685
lclavicle 1.97915e-014 1.72943e-014
lhumerus -38.8795 -12.6514 94.7874
lradius 32.0592
lwrist 30.3681
lhand -20.043 57.242
lfingers 7.12502
lthumb 6.29826 447.128
rfemur 1.58435 2.85781 20.6942
rtibia -3.97569e-015
rfoot -2.70918 -20.4299
rtoes -1.66999
lfemur -9.96977 -22.7564 -11.2257
ltibia 16.5034
lfoot -10.225 20.4268
ltoes -31.5738
344
root -4.34756 17.8149 0.888165 -133.74 85.295 -138.093
lowerback 0.0212556 1.69065 1.67519
upperback -4.01264 2.43715 1.66172
thorax -4.14868 1.22235 0.684474
lowerneck -21.954 -1.93267 1.89354
upperneck 16.3841 -3.14647 -0.410958
head 8.68126 -1.39491 -0.873961
rclavicle -2.76186e-014 -5.1684e-015
rhumerus 42.7155 0.888769 -69.5008
rradius 93.973
rwrist -26.7316
rhand -28.5301 6.47335
rfingers 7.12502
rthumb -1.89793 -23.498
lclavicle -2.76186e-014 -5.1684e-015
lhumerus -38.8193 -12.544 94.7056
lradius 31.9399
lwrist 31.037
lhand -19.6712 57.2517
lfingers 7.12502
lthumb 6.65725 447.127
rfemur 1.55529 2.88631 20.7046
rtibia 4.77083e-015
rfoot -2.62639 -20.4309
rtoes -2.05688
lfemur -9.98227 -22.6683 -11.209
ltibia 16.4988
lfoot -10.1858 20.3459
ltoes -31.6315
345
root -4.35426 17.8161 0.88609 -133.527 85.3303 -137.883
lowerback 0.016981 1.72227 1.69048
upperback -3.99112 2.47701 1.63348
thorax -4.12195 1.24089 0.645986
lowerneck -21.9051 -2.02978 1.78745
upperneck 16.302 -3.27472 -0.264166
head 8.64773 -1.44658 -0.822517
rclavicle -2.59662e-015 -2.5842e-014
rhumerus 42.6557 0.90057 -69.6337
rradius 93.9279
rwrist -26.462
rhand -28.4411 6.43087
rfingers 7.12502
rthumb -1.81195 -23.5412
lclavicle -2.59662e-015 -2.5842e-014
lhumerus -38.6761 -12.3622 94.5561
lradius 31.7829
lwrist 31.6987
lhand -19.1849 57.4714
lfingers 7.12502
lthumb 7.12672 447.331
rfemur 1.50924 2.92197 20.6778
rtibia -1.51076e-014
rfoot -2.57098 -20.3954
rtoes -2.19158
lfemur -9.98923 -22.5918 -11.2239
ltibia 16.4645
lfoot -10.1616 20.3048
ltoes -31.504
346
root -4.3615 17.8179 0.884919 -133.562 85.3864 -137.936
lowerback -0.00086933 1.75376 1.65764
upperback -3.96927 2.51423 1.58726
thorax -4.08823 1.25935 0.616433
lowerneck -21.8727 -2.12369 1.82441
upperneck 16.2453 -3.42604 -0.203114
head 8.62154 -1.50913 -0.826875
rclavicle 1.46852e-014 1.25234e-014
rhumerus 42.6199 0.876775 -69.7629
rradius 93.8814
rwrist -26.3724
rhand -28.2871 6.40303
rfingers 7.12502
rthumb -1.6632 -23.5702
lclavicle 1.46852e-014 1.25234e-014
lhumerus -38.5527 -12.2042 94.3772
lradius 31.6654
lwrist 32.296
lhand -18.7855 57.7197
lfingers 7.12502
lthumb 7.51219 447.566
rfemur 1.45019 2.95674 20.6236
rtibia -1.59028e-014
rfoot -2.52697 -20.3451
rtoes -2.21337
lfemur -9.99968 -22.5634 -11.2614
ltibia 16.4085
lfoot -10.147 20.296
ltoes -31.4516
347
root -4.36998 17.8201 0.883854 -133.575 85.4139 -138.001
lowerback -0.015786 1.76694 1.65568
upperback -3.98324 2.53001 1.54332
thorax -4.09232 1.26631 0.572024
lowerneck -21.932 -2.19321 1.87245
upperneck 16.355 -3.54146 -0.190264
head 8.66729 -1.55662 -0.847828
rclavicle 1.2424e-017 7.95139e-016
rhumerus 42.5727 0.896546 -69.8815
rradius 93.7977
rwrist -26.3964
rhand -28.2077 6.49551
rfingers 7.12502
rthumb -1.58648 -23.4783
lclavicle 1.2424e-017 7.95139e-016
lhumerus -38.5316 -12.0733 94.2284
lradius 31.6442
lwrist 32.8651
lhand -18.6926 57.9353
lfingers 7.12502
lthumb 7.60182 447.779
rfemur 1.3547 2.97139 20.5913
rtibia 3.97569e-015
rfoot -2.52765 -20.3376
rtoes -2.34582
lfemur -10.0558 -22.5436 -11.2549
ltibia 16.3384
lfoot -10.1224 20.2668
ltoes -31.4857
348
root -4.37874 17.8222 0.882433 -133.348 85.4138 -137.827
lowerback -0.0269809 1.774 1.70024
upperback -3.99252 2.53937 1.51419
thorax -4.09242 1.26884 0.517109
lowerneck -22.0112 -2.23591 1.84404
upperneck 16.4397 -3.60575 -0.133454
head 8.71097 -1.58038 -0.834715
rclavicle 8.75895e-015 -1.98785e-016
rhumerus 42.5509 0.944061 -69.9831
rradius 93.7094
rwrist -26.3618
rhand -28.1325 6.59327
rfingers 7.12502
rthumb -1.51391 -23.3811
lclavicle 8.75895e-015 -1.98785e-016
lhumerus -38.5328 -11.9522 94.1115
lradius 31.6824
lwrist 33.4502
lhand -19.0032 58.1328
lfingers 7.12502
lthumb 7.30204 447.987
rfemur 1.25338 2.98083 20.5902
rtibia -2.38542e-015
rfoot -2.5149 -20.2986
rtoes -2.60692
lfemur -10.1117 -22.4607 -11.2132
ltibia 16.2594
lfoot -10.0259 20.214
ltoes -31.437
